<?xml version="1.0" encoding="UTF-8"?>
<svg xmlns="http://www.w3.org/2000/svg" viewBox="0 0 804 778" width="804" height="778" role="img" aria-label="Monogram logo">
  <path d="M 200.0 21.0 L 198.0 23.0 L 195.0 24.0 L 192.0 27.0 L 191.0 27.0 L 187.0 31.0 L 186.0 31.0 L 180.0 37.0 L 180.0 38.0 L 177.0 41.0 L 177.0 42.0 L 175.0 44.0 L 175.0 45.0 L 174.0 46.0 L 174.0 47.0 L 173.0 48.0 L 173.0 49.0 L 170.0 54.0 L 170.0 57.0 L 169.0 58.0 L 169.0 61.0 L 168.0 62.0 L 168.0 80.0 L 169.0 81.0 L 169.0 84.0 L 170.0 85.0 L 170.0 87.0 L 171.0 88.0 L 171.0 90.0 L 172.0 91.0 L 172.0 92.0 L 173.0 93.0 L 174.0 96.0 L 177.0 99.0 L 177.0 100.0 L 185.0 108.0 L 186.0 108.0 L 188.0 110.0 L 189.0 110.0 L 190.0 111.0 L 191.0 111.0 L 192.0 112.0 L 193.0 112.0 L 198.0 115.0 L 200.0 115.0 L 201.0 116.0 L 204.0 116.0 L 205.0 117.0 L 211.0 117.0 L 212.0 118.0 L 221.0 118.0 L 222.0 117.0 L 227.0 117.0 L 228.0 116.0 L 232.0 116.0 L 233.0 115.0 L 235.0 115.0 L 238.0 113.0 L 240.0 113.0 L 243.0 111.0 L 242.0 111.0 L 239.0 113.0 L 237.0 113.0 L 236.0 114.0 L 232.0 114.0 L 231.0 115.0 L 226.0 115.0 L 225.0 116.0 L 214.0 116.0 L 213.0 115.0 L 209.0 115.0 L 208.0 114.0 L 205.0 114.0 L 204.0 113.0 L 202.0 113.0 L 201.0 112.0 L 200.0 112.0 L 199.0 111.0 L 196.0 110.0 L 194.0 108.0 L 193.0 108.0 L 191.0 106.0 L 190.0 106.0 L 184.0 100.0 L 184.0 99.0 L 181.0 96.0 L 180.0 93.0 L 178.0 91.0 L 178.0 89.0 L 176.0 86.0 L 176.0 83.0 L 175.0 82.0 L 175.0 79.0 L 174.0 78.0 L 174.0 66.0 L 175.0 65.0 L 175.0 61.0 L 176.0 60.0 L 176.0 58.0 L 177.0 57.0 L 177.0 55.0 L 178.0 54.0 L 178.0 53.0 L 179.0 52.0 L 180.0 49.0 L 184.0 44.0 L 184.0 43.0 L 196.0 31.0 L 197.0 31.0 L 199.0 29.0 L 200.0 29.0 L 205.0 25.0 L 206.0 25.0 L 207.0 24.0 L 208.0 24.0 L 213.0 21.0 L 215.0 21.0 L 218.0 19.0 L 220.0 19.0 L 221.0 18.0 L 223.0 18.0 L 224.0 17.0 L 227.0 17.0 L 228.0 16.0 L 232.0 16.0 L 233.0 15.0 L 237.0 15.0 L 238.0 14.0 L 245.0 14.0 L 246.0 13.0 L 268.0 13.0 L 269.0 14.0 L 276.0 14.0 L 277.0 15.0 L 281.0 15.0 L 282.0 16.0 L 286.0 16.0 L 287.0 17.0 L 290.0 17.0 L 291.0 18.0 L 293.0 18.0 L 294.0 19.0 L 296.0 19.0 L 299.0 21.0 L 301.0 21.0 L 302.0 22.0 L 303.0 22.0 L 304.0 23.0 L 305.0 23.0 L 306.0 24.0 L 307.0 24.0 L 308.0 25.0 L 311.0 26.0 L 313.0 28.0 L 314.0 28.0 L 316.0 30.0 L 317.0 30.0 L 319.0 32.0 L 320.0 32.0 L 323.0 35.0 L 324.0 35.0 L 332.0 43.0 L 332.0 44.0 L 337.0 49.0 L 337.0 50.0 L 341.0 55.0 L 341.0 56.0 L 342.0 57.0 L 342.0 58.0 L 343.0 59.0 L 343.0 60.0 L 346.0 65.0 L 346.0 67.0 L 348.0 70.0 L 348.0 72.0 L 349.0 73.0 L 349.0 75.0 L 350.0 76.0 L 350.0 79.0 L 351.0 80.0 L 351.0 83.0 L 352.0 84.0 L 352.0 88.0 L 353.0 89.0 L 353.0 95.0 L 354.0 96.0 L 354.0 105.0 L 355.0 106.0 L 355.0 230.0 L 354.0 231.0 L 243.0 231.0 L 242.0 230.0 L 244.0 228.0 L 244.0 227.0 L 248.0 222.0 L 249.0 219.0 L 251.0 217.0 L 251.0 216.0 L 255.0 211.0 L 255.0 210.0 L 256.0 209.0 L 257.0 206.0 L 261.0 201.0 L 261.0 200.0 L 262.0 199.0 L 263.0 196.0 L 265.0 194.0 L 265.0 193.0 L 266.0 192.0 L 266.0 191.0 L 267.0 190.0 L 268.0 187.0 L 270.0 185.0 L 270.0 184.0 L 271.0 183.0 L 271.0 182.0 L 272.0 181.0 L 272.0 180.0 L 273.0 179.0 L 273.0 178.0 L 274.0 177.0 L 274.0 176.0 L 275.0 175.0 L 275.0 174.0 L 276.0 173.0 L 276.0 172.0 L 277.0 171.0 L 277.0 170.0 L 278.0 169.0 L 278.0 168.0 L 279.0 167.0 L 279.0 166.0 L 280.0 165.0 L 280.0 164.0 L 281.0 163.0 L 281.0 162.0 L 282.0 161.0 L 282.0 160.0 L 283.0 159.0 L 283.0 158.0 L 286.0 153.0 L 286.0 151.0 L 289.0 146.0 L 289.0 144.0 L 292.0 139.0 L 292.0 137.0 L 293.0 136.0 L 293.0 134.0 L 295.0 131.0 L 295.0 129.0 L 296.0 128.0 L 296.0 126.0 L 297.0 125.0 L 297.0 123.0 L 298.0 122.0 L 298.0 120.0 L 299.0 119.0 L 299.0 116.0 L 300.0 115.0 L 300.0 113.0 L 301.0 112.0 L 301.0 110.0 L 301.0 112.0 L 299.0 115.0 L 299.0 117.0 L 298.0 118.0 L 298.0 120.0 L 297.0 121.0 L 297.0 123.0 L 296.0 124.0 L 296.0 125.0 L 293.0 130.0 L 293.0 132.0 L 292.0 133.0 L 292.0 134.0 L 291.0 135.0 L 291.0 136.0 L 290.0 137.0 L 290.0 138.0 L 289.0 139.0 L 289.0 140.0 L 288.0 141.0 L 288.0 142.0 L 287.0 143.0 L 287.0 144.0 L 286.0 145.0 L 286.0 146.0 L 285.0 147.0 L 285.0 148.0 L 284.0 149.0 L 284.0 150.0 L 283.0 151.0 L 283.0 152.0 L 282.0 153.0 L 281.0 156.0 L 279.0 158.0 L 279.0 159.0 L 278.0 160.0 L 277.0 163.0 L 275.0 165.0 L 275.0 166.0 L 274.0 167.0 L 273.0 170.0 L 271.0 172.0 L 270.0 175.0 L 268.0 177.0 L 268.0 178.0 L 267.0 179.0 L 267.0 180.0 L 265.0 182.0 L 264.0 185.0 L 262.0 187.0 L 262.0 188.0 L 260.0 190.0 L 260.0 191.0 L 256.0 196.0 L 255.0 199.0 L 253.0 201.0 L 253.0 202.0 L 251.0 204.0 L 251.0 205.0 L 248.0 208.0 L 248.0 209.0 L 246.0 211.0 L 246.0 212.0 L 244.0 214.0 L 244.0 215.0 L 242.0 217.0 L 242.0 218.0 L 239.0 221.0 L 239.0 222.0 L 237.0 224.0 L 237.0 225.0 L 234.0 228.0 L 234.0 229.0 L 232.0 231.0 L 194.0 231.0 L 193.0 232.0 L 167.0 232.0 L 166.0 233.0 L 152.0 233.0 L 151.0 234.0 L 142.0 234.0 L 141.0 235.0 L 133.0 235.0 L 132.0 236.0 L 125.0 236.0 L 124.0 237.0 L 119.0 237.0 L 118.0 238.0 L 113.0 238.0 L 112.0 239.0 L 108.0 239.0 L 107.0 240.0 L 103.0 240.0 L 102.0 241.0 L 99.0 241.0 L 98.0 242.0 L 95.0 242.0 L 94.0 243.0 L 92.0 243.0 L 91.0 244.0 L 88.0 244.0 L 87.0 245.0 L 85.0 245.0 L 84.0 246.0 L 82.0 246.0 L 81.0 247.0 L 79.0 247.0 L 78.0 248.0 L 76.0 248.0 L 75.0 249.0 L 73.0 249.0 L 72.0 250.0 L 70.0 250.0 L 69.0 251.0 L 68.0 251.0 L 67.0 252.0 L 65.0 252.0 L 60.0 255.0 L 58.0 255.0 L 57.0 256.0 L 56.0 256.0 L 55.0 257.0 L 52.0 258.0 L 50.0 260.0 L 49.0 260.0 L 48.0 261.0 L 45.0 262.0 L 43.0 264.0 L 42.0 264.0 L 40.0 266.0 L 39.0 266.0 L 36.0 269.0 L 35.0 269.0 L 30.0 274.0 L 29.0 274.0 L 26.0 277.0 L 26.0 278.0 L 20.0 284.0 L 20.0 285.0 L 16.0 290.0 L 16.0 291.0 L 14.0 294.0 L 14.0 296.0 L 12.0 299.0 L 12.0 302.0 L 11.0 303.0 L 11.0 306.0 L 10.0 307.0 L 10.0 326.0 L 11.0 327.0 L 11.0 330.0 L 12.0 331.0 L 12.0 333.0 L 13.0 334.0 L 13.0 336.0 L 14.0 337.0 L 14.0 338.0 L 15.0 339.0 L 15.0 340.0 L 16.0 341.0 L 16.0 342.0 L 17.0 343.0 L 18.0 346.0 L 21.0 349.0 L 21.0 350.0 L 30.0 359.0 L 31.0 359.0 L 34.0 362.0 L 35.0 362.0 L 37.0 364.0 L 38.0 364.0 L 39.0 365.0 L 40.0 365.0 L 41.0 366.0 L 42.0 366.0 L 47.0 369.0 L 49.0 369.0 L 50.0 370.0 L 53.0 370.0 L 54.0 371.0 L 57.0 371.0 L 58.0 372.0 L 62.0 372.0 L 63.0 373.0 L 80.0 373.0 L 81.0 372.0 L 86.0 372.0 L 87.0 371.0 L 90.0 371.0 L 91.0 370.0 L 94.0 370.0 L 95.0 369.0 L 97.0 369.0 L 100.0 367.0 L 102.0 367.0 L 103.0 366.0 L 104.0 366.0 L 105.0 365.0 L 106.0 365.0 L 107.0 364.0 L 108.0 364.0 L 109.0 363.0 L 110.0 363.0 L 111.0 362.0 L 112.0 362.0 L 113.0 361.0 L 114.0 361.0 L 115.0 360.0 L 118.0 359.0 L 120.0 357.0 L 123.0 356.0 L 125.0 354.0 L 126.0 354.0 L 128.0 352.0 L 129.0 352.0 L 131.0 350.0 L 132.0 350.0 L 134.0 348.0 L 135.0 348.0 L 142.0 342.0 L 143.0 342.0 L 147.0 338.0 L 148.0 338.0 L 153.0 333.0 L 154.0 333.0 L 164.0 323.0 L 165.0 323.0 L 186.0 302.0 L 186.0 301.0 L 194.0 293.0 L 194.0 292.0 L 201.0 285.0 L 201.0 284.0 L 206.0 279.0 L 206.0 278.0 L 211.0 273.0 L 211.0 272.0 L 215.0 268.0 L 215.0 267.0 L 218.0 264.0 L 218.0 263.0 L 222.0 259.0 L 222.0 258.0 L 225.0 255.0 L 225.0 254.0 L 227.0 252.0 L 227.0 251.0 L 231.0 247.0 L 231.0 246.0 L 233.0 244.0 L 233.0 243.0 L 235.0 241.0 L 235.0 240.0 L 238.0 237.0 L 263.0 237.0 L 264.0 238.0 L 323.0 238.0 L 324.0 239.0 L 354.0 239.0 L 356.0 241.0 L 356.0 249.0 L 355.0 250.0 L 355.0 258.0 L 356.0 259.0 L 356.0 281.0 L 355.0 282.0 L 355.0 324.0 L 356.0 325.0 L 356.0 330.0 L 355.0 331.0 L 355.0 369.0 L 356.0 370.0 L 356.0 409.0 L 355.0 410.0 L 355.0 452.0 L 356.0 453.0 L 356.0 472.0 L 355.0 473.0 L 355.0 485.0 L 356.0 486.0 L 356.0 505.0 L 355.0 506.0 L 355.0 522.0 L 354.0 523.0 L 327.0 523.0 L 326.0 524.0 L 242.0 524.0 L 241.0 523.0 L 241.0 522.0 L 239.0 520.0 L 239.0 519.0 L 237.0 517.0 L 237.0 516.0 L 234.0 513.0 L 234.0 512.0 L 232.0 510.0 L 232.0 509.0 L 230.0 507.0 L 230.0 506.0 L 227.0 503.0 L 227.0 502.0 L 225.0 500.0 L 225.0 499.0 L 222.0 496.0 L 222.0 495.0 L 219.0 492.0 L 219.0 491.0 L 216.0 488.0 L 216.0 487.0 L 213.0 484.0 L 213.0 483.0 L 209.0 479.0 L 209.0 478.0 L 201.0 469.0 L 201.0 468.0 L 195.0 462.0 L 195.0 461.0 L 189.0 455.0 L 189.0 454.0 L 158.0 423.0 L 157.0 423.0 L 150.0 416.0 L 149.0 416.0 L 145.0 412.0 L 144.0 412.0 L 140.0 408.0 L 139.0 408.0 L 132.0 402.0 L 131.0 402.0 L 126.0 398.0 L 123.0 397.0 L 121.0 395.0 L 118.0 394.0 L 116.0 392.0 L 115.0 392.0 L 114.0 391.0 L 113.0 391.0 L 112.0 390.0 L 111.0 390.0 L 110.0 389.0 L 109.0 389.0 L 108.0 388.0 L 107.0 388.0 L 106.0 387.0 L 105.0 387.0 L 100.0 384.0 L 98.0 384.0 L 97.0 383.0 L 95.0 383.0 L 94.0 382.0 L 92.0 382.0 L 91.0 381.0 L 89.0 381.0 L 88.0 380.0 L 84.0 380.0 L 83.0 379.0 L 76.0 379.0 L 75.0 378.0 L 67.0 378.0 L 66.0 379.0 L 59.0 379.0 L 58.0 380.0 L 54.0 380.0 L 53.0 381.0 L 51.0 381.0 L 50.0 382.0 L 48.0 382.0 L 47.0 383.0 L 46.0 383.0 L 45.0 384.0 L 43.0 384.0 L 42.0 385.0 L 39.0 386.0 L 37.0 388.0 L 34.0 389.0 L 31.0 392.0 L 30.0 392.0 L 20.0 402.0 L 20.0 403.0 L 16.0 408.0 L 16.0 409.0 L 15.0 410.0 L 15.0 411.0 L 12.0 416.0 L 12.0 418.0 L 11.0 419.0 L 11.0 421.0 L 10.0 422.0 L 10.0 425.0 L 9.0 426.0 L 9.0 433.0 L 8.0 434.0 L 8.0 441.0 L 9.0 442.0 L 9.0 449.0 L 10.0 450.0 L 10.0 454.0 L 11.0 455.0 L 11.0 457.0 L 12.0 458.0 L 12.0 460.0 L 13.0 461.0 L 13.0 462.0 L 14.0 463.0 L 14.0 464.0 L 15.0 465.0 L 16.0 468.0 L 18.0 470.0 L 18.0 471.0 L 20.0 473.0 L 20.0 474.0 L 25.0 479.0 L 25.0 480.0 L 27.0 482.0 L 28.0 482.0 L 35.0 489.0 L 36.0 489.0 L 38.0 491.0 L 39.0 491.0 L 42.0 494.0 L 45.0 495.0 L 47.0 497.0 L 50.0 498.0 L 52.0 500.0 L 53.0 500.0 L 54.0 501.0 L 55.0 501.0 L 56.0 502.0 L 57.0 502.0 L 62.0 505.0 L 64.0 505.0 L 69.0 508.0 L 71.0 508.0 L 72.0 509.0 L 74.0 509.0 L 77.0 511.0 L 79.0 511.0 L 80.0 512.0 L 82.0 512.0 L 83.0 513.0 L 85.0 513.0 L 86.0 514.0 L 88.0 514.0 L 89.0 515.0 L 92.0 515.0 L 93.0 516.0 L 95.0 516.0 L 96.0 517.0 L 99.0 517.0 L 100.0 518.0 L 103.0 518.0 L 104.0 519.0 L 107.0 519.0 L 108.0 520.0 L 112.0 520.0 L 113.0 521.0 L 116.0 521.0 L 117.0 522.0 L 122.0 522.0 L 123.0 523.0 L 128.0 523.0 L 129.0 524.0 L 134.0 524.0 L 135.0 525.0 L 141.0 525.0 L 142.0 526.0 L 149.0 526.0 L 150.0 527.0 L 159.0 527.0 L 160.0 528.0 L 173.0 528.0 L 174.0 529.0 L 190.0 529.0 L 191.0 530.0 L 230.0 530.0 L 231.0 531.0 L 237.0 531.0 L 240.0 534.0 L 240.0 535.0 L 242.0 537.0 L 242.0 538.0 L 245.0 541.0 L 245.0 542.0 L 247.0 544.0 L 247.0 545.0 L 251.0 550.0 L 252.0 553.0 L 254.0 555.0 L 254.0 556.0 L 256.0 558.0 L 256.0 559.0 L 260.0 564.0 L 260.0 565.0 L 261.0 566.0 L 262.0 569.0 L 266.0 574.0 L 266.0 575.0 L 267.0 576.0 L 267.0 577.0 L 269.0 579.0 L 269.0 580.0 L 270.0 581.0 L 270.0 582.0 L 271.0 583.0 L 272.0 586.0 L 274.0 588.0 L 274.0 589.0 L 275.0 590.0 L 275.0 591.0 L 276.0 592.0 L 277.0 595.0 L 279.0 597.0 L 279.0 598.0 L 280.0 599.0 L 280.0 600.0 L 281.0 601.0 L 281.0 602.0 L 282.0 603.0 L 282.0 604.0 L 283.0 605.0 L 283.0 606.0 L 284.0 607.0 L 284.0 608.0 L 285.0 609.0 L 285.0 610.0 L 286.0 611.0 L 286.0 612.0 L 287.0 613.0 L 287.0 614.0 L 288.0 615.0 L 288.0 616.0 L 291.0 621.0 L 291.0 623.0 L 294.0 628.0 L 294.0 630.0 L 295.0 631.0 L 295.0 632.0 L 296.0 633.0 L 296.0 635.0 L 298.0 638.0 L 298.0 640.0 L 299.0 641.0 L 299.0 643.0 L 300.0 644.0 L 300.0 646.0 L 301.0 647.0 L 301.0 649.0 L 302.0 650.0 L 302.0 652.0 L 303.0 653.0 L 303.0 655.0 L 304.0 656.0 L 304.0 658.0 L 304.0 656.0 L 303.0 655.0 L 303.0 652.0 L 302.0 651.0 L 302.0 648.0 L 301.0 647.0 L 301.0 645.0 L 300.0 644.0 L 300.0 641.0 L 299.0 640.0 L 299.0 638.0 L 298.0 637.0 L 298.0 635.0 L 297.0 634.0 L 297.0 632.0 L 296.0 631.0 L 296.0 629.0 L 295.0 628.0 L 295.0 626.0 L 294.0 625.0 L 294.0 623.0 L 292.0 620.0 L 292.0 618.0 L 290.0 615.0 L 290.0 613.0 L 287.0 608.0 L 287.0 606.0 L 284.0 601.0 L 284.0 599.0 L 283.0 598.0 L 283.0 597.0 L 282.0 596.0 L 282.0 595.0 L 281.0 594.0 L 281.0 593.0 L 280.0 592.0 L 280.0 591.0 L 279.0 590.0 L 279.0 589.0 L 278.0 588.0 L 278.0 587.0 L 277.0 586.0 L 277.0 585.0 L 276.0 584.0 L 276.0 583.0 L 275.0 582.0 L 275.0 581.0 L 274.0 580.0 L 274.0 579.0 L 273.0 578.0 L 273.0 577.0 L 272.0 576.0 L 272.0 575.0 L 271.0 574.0 L 271.0 573.0 L 270.0 572.0 L 270.0 571.0 L 269.0 570.0 L 269.0 569.0 L 268.0 568.0 L 267.0 565.0 L 265.0 563.0 L 265.0 562.0 L 264.0 561.0 L 263.0 558.0 L 261.0 556.0 L 261.0 555.0 L 260.0 554.0 L 260.0 553.0 L 259.0 552.0 L 258.0 549.0 L 254.0 544.0 L 253.0 541.0 L 251.0 539.0 L 250.0 536.0 L 248.0 534.0 L 248.0 533.0 L 247.0 532.0 L 248.0 531.0 L 354.0 531.0 L 356.0 533.0 L 356.0 545.0 L 355.0 546.0 L 355.0 578.0 L 356.0 579.0 L 356.0 594.0 L 355.0 595.0 L 355.0 605.0 L 356.0 606.0 L 356.0 610.0 L 355.0 611.0 L 355.0 668.0 L 354.0 669.0 L 354.0 678.0 L 353.0 679.0 L 353.0 685.0 L 352.0 686.0 L 352.0 691.0 L 351.0 692.0 L 351.0 695.0 L 350.0 696.0 L 350.0 699.0 L 349.0 700.0 L 349.0 703.0 L 348.0 704.0 L 348.0 706.0 L 347.0 707.0 L 347.0 709.0 L 345.0 712.0 L 345.0 714.0 L 344.0 715.0 L 344.0 716.0 L 343.0 717.0 L 342.0 720.0 L 340.0 722.0 L 339.0 725.0 L 337.0 727.0 L 337.0 728.0 L 335.0 730.0 L 335.0 731.0 L 321.0 745.0 L 320.0 745.0 L 318.0 747.0 L 317.0 747.0 L 312.0 751.0 L 311.0 751.0 L 310.0 752.0 L 309.0 752.0 L 308.0 753.0 L 307.0 753.0 L 302.0 756.0 L 300.0 756.0 L 297.0 758.0 L 295.0 758.0 L 294.0 759.0 L 291.0 759.0 L 290.0 760.0 L 288.0 760.0 L 287.0 761.0 L 283.0 761.0 L 282.0 762.0 L 277.0 762.0 L 276.0 763.0 L 267.0 763.0 L 266.0 764.0 L 251.0 764.0 L 250.0 763.0 L 242.0 763.0 L 241.0 762.0 L 236.0 762.0 L 235.0 761.0 L 231.0 761.0 L 230.0 760.0 L 227.0 760.0 L 226.0 759.0 L 224.0 759.0 L 223.0 758.0 L 221.0 758.0 L 220.0 757.0 L 218.0 757.0 L 215.0 755.0 L 213.0 755.0 L 212.0 754.0 L 211.0 754.0 L 210.0 753.0 L 207.0 752.0 L 205.0 750.0 L 202.0 749.0 L 199.0 746.0 L 198.0 746.0 L 194.0 742.0 L 193.0 742.0 L 189.0 738.0 L 189.0 737.0 L 184.0 732.0 L 184.0 731.0 L 182.0 729.0 L 182.0 728.0 L 181.0 727.0 L 181.0 726.0 L 178.0 721.0 L 178.0 719.0 L 177.0 718.0 L 177.0 716.0 L 176.0 715.0 L 176.0 711.0 L 175.0 710.0 L 175.0 697.0 L 176.0 696.0 L 176.0 692.0 L 177.0 691.0 L 177.0 689.0 L 179.0 686.0 L 179.0 684.0 L 181.0 682.0 L 181.0 681.0 L 183.0 679.0 L 183.0 678.0 L 186.0 675.0 L 186.0 674.0 L 188.0 672.0 L 189.0 672.0 L 194.0 667.0 L 195.0 667.0 L 196.0 666.0 L 197.0 666.0 L 198.0 665.0 L 199.0 665.0 L 204.0 662.0 L 207.0 662.0 L 208.0 661.0 L 211.0 661.0 L 212.0 660.0 L 227.0 660.0 L 228.0 661.0 L 233.0 661.0 L 234.0 662.0 L 237.0 662.0 L 238.0 663.0 L 240.0 663.0 L 241.0 664.0 L 242.0 664.0 L 243.0 665.0 L 245.0 665.0 L 246.0 666.0 L 245.0 665.0 L 244.0 665.0 L 243.0 664.0 L 241.0 664.0 L 238.0 662.0 L 236.0 662.0 L 235.0 661.0 L 233.0 661.0 L 232.0 660.0 L 229.0 660.0 L 228.0 659.0 L 224.0 659.0 L 223.0 658.0 L 210.0 658.0 L 209.0 659.0 L 204.0 659.0 L 203.0 660.0 L 200.0 660.0 L 199.0 661.0 L 197.0 661.0 L 196.0 662.0 L 195.0 662.0 L 194.0 663.0 L 191.0 664.0 L 189.0 666.0 L 188.0 666.0 L 186.0 668.0 L 185.0 668.0 L 177.0 676.0 L 177.0 677.0 L 173.0 682.0 L 173.0 683.0 L 172.0 684.0 L 172.0 686.0 L 170.0 689.0 L 170.0 692.0 L 169.0 693.0 L 169.0 697.0 L 168.0 698.0 L 168.0 710.0 L 169.0 711.0 L 169.0 717.0 L 170.0 718.0 L 170.0 720.0 L 171.0 721.0 L 171.0 723.0 L 172.0 724.0 L 172.0 725.0 L 173.0 726.0 L 173.0 727.0 L 174.0 728.0 L 174.0 729.0 L 175.0 730.0 L 176.0 733.0 L 178.0 735.0 L 178.0 736.0 L 183.0 741.0 L 183.0 742.0 L 185.0 744.0 L 186.0 744.0 L 191.0 749.0 L 192.0 749.0 L 195.0 752.0 L 196.0 752.0 L 198.0 754.0 L 199.0 754.0 L 200.0 755.0 L 201.0 755.0 L 202.0 756.0 L 203.0 756.0 L 204.0 757.0 L 205.0 757.0 L 210.0 760.0 L 212.0 760.0 L 215.0 762.0 L 217.0 762.0 L 218.0 763.0 L 221.0 763.0 L 222.0 764.0 L 224.0 764.0 L 225.0 765.0 L 229.0 765.0 L 230.0 766.0 L 234.0 766.0 L 235.0 767.0 L 241.0 767.0 L 242.0 768.0 L 254.0 768.0 L 255.0 769.0 L 264.0 769.0 L 265.0 768.0 L 277.0 768.0 L 278.0 767.0 L 284.0 767.0 L 285.0 766.0 L 289.0 766.0 L 290.0 765.0 L 294.0 765.0 L 295.0 764.0 L 297.0 764.0 L 298.0 763.0 L 301.0 763.0 L 302.0 762.0 L 304.0 762.0 L 305.0 761.0 L 307.0 761.0 L 308.0 760.0 L 310.0 760.0 L 311.0 759.0 L 312.0 759.0 L 313.0 758.0 L 314.0 758.0 L 315.0 757.0 L 316.0 757.0 L 317.0 756.0 L 318.0 756.0 L 319.0 755.0 L 320.0 755.0 L 321.0 754.0 L 324.0 753.0 L 326.0 751.0 L 327.0 751.0 L 329.0 749.0 L 330.0 749.0 L 333.0 746.0 L 334.0 746.0 L 348.0 732.0 L 348.0 731.0 L 351.0 728.0 L 351.0 727.0 L 355.0 722.0 L 355.0 721.0 L 356.0 720.0 L 356.0 719.0 L 357.0 718.0 L 357.0 717.0 L 360.0 712.0 L 360.0 710.0 L 362.0 707.0 L 362.0 705.0 L 363.0 704.0 L 363.0 702.0 L 364.0 701.0 L 364.0 699.0 L 365.0 698.0 L 365.0 695.0 L 366.0 694.0 L 366.0 690.0 L 367.0 689.0 L 367.0 685.0 L 368.0 684.0 L 368.0 677.0 L 369.0 676.0 L 369.0 666.0 L 370.0 665.0 L 370.0 610.0 L 371.0 609.0 L 371.0 603.0 L 370.0 602.0 L 370.0 580.0 L 371.0 579.0 L 371.0 567.0 L 370.0 566.0 L 370.0 551.0 L 371.0 550.0 L 371.0 532.0 L 372.0 531.0 L 432.0 531.0 L 433.0 532.0 L 433.0 667.0 L 434.0 668.0 L 434.0 680.0 L 435.0 681.0 L 435.0 687.0 L 436.0 688.0 L 436.0 693.0 L 437.0 694.0 L 437.0 697.0 L 438.0 698.0 L 438.0 701.0 L 439.0 702.0 L 439.0 704.0 L 440.0 705.0 L 440.0 707.0 L 441.0 708.0 L 441.0 710.0 L 442.0 711.0 L 442.0 713.0 L 443.0 714.0 L 443.0 715.0 L 444.0 716.0 L 444.0 717.0 L 445.0 718.0 L 445.0 719.0 L 446.0 720.0 L 447.0 723.0 L 449.0 725.0 L 449.0 726.0 L 451.0 728.0 L 451.0 729.0 L 454.0 732.0 L 454.0 733.0 L 464.0 743.0 L 465.0 743.0 L 469.0 747.0 L 470.0 747.0 L 472.0 749.0 L 473.0 749.0 L 478.0 753.0 L 479.0 753.0 L 480.0 754.0 L 481.0 754.0 L 482.0 755.0 L 483.0 755.0 L 488.0 758.0 L 490.0 758.0 L 495.0 761.0 L 497.0 761.0 L 498.0 762.0 L 500.0 762.0 L 501.0 763.0 L 504.0 763.0 L 505.0 764.0 L 507.0 764.0 L 508.0 765.0 L 512.0 765.0 L 513.0 766.0 L 518.0 766.0 L 519.0 767.0 L 524.0 767.0 L 525.0 768.0 L 538.0 768.0 L 539.0 769.0 L 548.0 769.0 L 549.0 768.0 L 561.0 768.0 L 562.0 767.0 L 567.0 767.0 L 568.0 766.0 L 573.0 766.0 L 574.0 765.0 L 577.0 765.0 L 578.0 764.0 L 581.0 764.0 L 582.0 763.0 L 584.0 763.0 L 585.0 762.0 L 587.0 762.0 L 590.0 760.0 L 592.0 760.0 L 593.0 759.0 L 594.0 759.0 L 595.0 758.0 L 596.0 758.0 L 597.0 757.0 L 598.0 757.0 L 599.0 756.0 L 600.0 756.0 L 601.0 755.0 L 604.0 754.0 L 606.0 752.0 L 607.0 752.0 L 610.0 749.0 L 611.0 749.0 L 614.0 746.0 L 615.0 746.0 L 619.0 742.0 L 619.0 741.0 L 624.0 736.0 L 624.0 735.0 L 626.0 733.0 L 627.0 730.0 L 629.0 728.0 L 629.0 726.0 L 632.0 721.0 L 632.0 718.0 L 633.0 717.0 L 633.0 713.0 L 634.0 712.0 L 634.0 696.0 L 633.0 695.0 L 633.0 692.0 L 632.0 691.0 L 632.0 688.0 L 631.0 687.0 L 631.0 686.0 L 630.0 685.0 L 630.0 684.0 L 629.0 683.0 L 629.0 682.0 L 628.0 681.0 L 627.0 678.0 L 624.0 675.0 L 624.0 674.0 L 619.0 669.0 L 618.0 669.0 L 615.0 666.0 L 614.0 666.0 L 612.0 664.0 L 611.0 664.0 L 608.0 662.0 L 606.0 662.0 L 605.0 661.0 L 603.0 661.0 L 602.0 660.0 L 600.0 660.0 L 599.0 659.0 L 594.0 659.0 L 593.0 658.0 L 580.0 658.0 L 579.0 659.0 L 574.0 659.0 L 573.0 660.0 L 570.0 660.0 L 569.0 661.0 L 567.0 661.0 L 564.0 663.0 L 562.0 663.0 L 561.0 664.0 L 558.0 665.0 L 559.0 665.0 L 560.0 664.0 L 562.0 664.0 L 563.0 663.0 L 565.0 663.0 L 566.0 662.0 L 569.0 662.0 L 570.0 661.0 L 575.0 661.0 L 576.0 660.0 L 590.0 660.0 L 591.0 661.0 L 595.0 661.0 L 596.0 662.0 L 598.0 662.0 L 599.0 663.0 L 601.0 663.0 L 602.0 664.0 L 605.0 665.0 L 610.0 669.0 L 611.0 669.0 L 619.0 677.0 L 619.0 678.0 L 621.0 680.0 L 621.0 681.0 L 623.0 683.0 L 623.0 684.0 L 624.0 685.0 L 624.0 687.0 L 626.0 690.0 L 626.0 693.0 L 627.0 694.0 L 627.0 700.0 L 628.0 701.0 L 628.0 705.0 L 627.0 706.0 L 627.0 713.0 L 626.0 714.0 L 626.0 716.0 L 625.0 717.0 L 625.0 719.0 L 624.0 720.0 L 624.0 721.0 L 623.0 722.0 L 623.0 723.0 L 622.0 724.0 L 622.0 725.0 L 621.0 726.0 L 620.0 729.0 L 618.0 731.0 L 618.0 732.0 L 612.0 738.0 L 612.0 739.0 L 609.0 742.0 L 608.0 742.0 L 604.0 746.0 L 603.0 746.0 L 600.0 749.0 L 597.0 750.0 L 595.0 752.0 L 594.0 752.0 L 589.0 755.0 L 587.0 755.0 L 584.0 757.0 L 582.0 757.0 L 581.0 758.0 L 579.0 758.0 L 578.0 759.0 L 576.0 759.0 L 575.0 760.0 L 572.0 760.0 L 571.0 761.0 L 567.0 761.0 L 566.0 762.0 L 561.0 762.0 L 560.0 763.0 L 551.0 763.0 L 550.0 764.0 L 535.0 764.0 L 534.0 763.0 L 527.0 763.0 L 526.0 762.0 L 520.0 762.0 L 519.0 761.0 L 516.0 761.0 L 515.0 760.0 L 512.0 760.0 L 511.0 759.0 L 509.0 759.0 L 508.0 758.0 L 506.0 758.0 L 505.0 757.0 L 503.0 757.0 L 502.0 756.0 L 500.0 756.0 L 499.0 755.0 L 498.0 755.0 L 497.0 754.0 L 496.0 754.0 L 495.0 753.0 L 494.0 753.0 L 493.0 752.0 L 492.0 752.0 L 491.0 751.0 L 488.0 750.0 L 486.0 748.0 L 485.0 748.0 L 483.0 746.0 L 482.0 746.0 L 478.0 742.0 L 477.0 742.0 L 470.0 735.0 L 470.0 734.0 L 466.0 730.0 L 466.0 729.0 L 462.0 724.0 L 462.0 723.0 L 461.0 722.0 L 461.0 721.0 L 460.0 720.0 L 460.0 719.0 L 459.0 718.0 L 459.0 717.0 L 456.0 712.0 L 456.0 710.0 L 455.0 709.0 L 455.0 707.0 L 454.0 706.0 L 454.0 704.0 L 453.0 703.0 L 453.0 700.0 L 452.0 699.0 L 452.0 696.0 L 451.0 695.0 L 451.0 690.0 L 450.0 689.0 L 450.0 683.0 L 449.0 682.0 L 449.0 673.0 L 448.0 672.0 L 448.0 532.0 L 449.0 531.0 L 555.0 531.0 L 556.0 532.0 L 555.0 535.0 L 553.0 537.0 L 552.0 540.0 L 550.0 542.0 L 550.0 543.0 L 548.0 545.0 L 548.0 546.0 L 547.0 547.0 L 546.0 550.0 L 544.0 552.0 L 544.0 553.0 L 543.0 554.0 L 542.0 557.0 L 540.0 559.0 L 540.0 560.0 L 539.0 561.0 L 539.0 562.0 L 538.0 563.0 L 538.0 564.0 L 537.0 565.0 L 537.0 566.0 L 536.0 567.0 L 535.0 570.0 L 533.0 572.0 L 533.0 573.0 L 532.0 574.0 L 532.0 575.0 L 531.0 576.0 L 531.0 577.0 L 530.0 578.0 L 530.0 579.0 L 529.0 580.0 L 529.0 581.0 L 526.0 586.0 L 526.0 588.0 L 525.0 589.0 L 525.0 590.0 L 524.0 591.0 L 524.0 592.0 L 523.0 593.0 L 523.0 594.0 L 522.0 595.0 L 522.0 596.0 L 519.0 601.0 L 519.0 603.0 L 516.0 608.0 L 516.0 610.0 L 514.0 613.0 L 514.0 615.0 L 512.0 618.0 L 512.0 620.0 L 511.0 621.0 L 511.0 623.0 L 509.0 626.0 L 509.0 628.0 L 508.0 629.0 L 508.0 631.0 L 507.0 632.0 L 507.0 635.0 L 506.0 636.0 L 506.0 638.0 L 505.0 639.0 L 505.0 641.0 L 504.0 642.0 L 504.0 645.0 L 503.0 646.0 L 503.0 648.0 L 502.0 649.0 L 502.0 652.0 L 501.0 653.0 L 501.0 656.0 L 500.0 657.0 L 500.0 659.0 L 500.0 657.0 L 501.0 656.0 L 501.0 654.0 L 502.0 653.0 L 502.0 651.0 L 503.0 650.0 L 503.0 648.0 L 504.0 647.0 L 504.0 644.0 L 506.0 641.0 L 506.0 639.0 L 508.0 636.0 L 508.0 634.0 L 510.0 631.0 L 510.0 629.0 L 513.0 624.0 L 513.0 622.0 L 516.0 617.0 L 516.0 615.0 L 517.0 614.0 L 517.0 613.0 L 518.0 612.0 L 518.0 611.0 L 519.0 610.0 L 519.0 609.0 L 520.0 608.0 L 520.0 607.0 L 521.0 606.0 L 521.0 605.0 L 522.0 604.0 L 522.0 603.0 L 523.0 602.0 L 523.0 601.0 L 524.0 600.0 L 525.0 597.0 L 527.0 595.0 L 527.0 594.0 L 528.0 593.0 L 528.0 592.0 L 529.0 591.0 L 529.0 590.0 L 530.0 589.0 L 531.0 586.0 L 533.0 584.0 L 533.0 583.0 L 534.0 582.0 L 534.0 581.0 L 535.0 580.0 L 536.0 577.0 L 538.0 575.0 L 539.0 572.0 L 541.0 570.0 L 541.0 569.0 L 542.0 568.0 L 542.0 567.0 L 544.0 565.0 L 545.0 562.0 L 547.0 560.0 L 547.0 559.0 L 549.0 557.0 L 549.0 556.0 L 553.0 551.0 L 554.0 548.0 L 556.0 546.0 L 556.0 545.0 L 558.0 543.0 L 558.0 542.0 L 560.0 540.0 L 560.0 539.0 L 562.0 537.0 L 562.0 536.0 L 564.0 534.0 L 564.0 533.0 L 567.0 530.0 L 568.0 531.0 L 578.0 531.0 L 579.0 530.0 L 615.0 530.0 L 616.0 529.0 L 632.0 529.0 L 633.0 528.0 L 644.0 528.0 L 645.0 527.0 L 654.0 527.0 L 655.0 526.0 L 662.0 526.0 L 663.0 525.0 L 669.0 525.0 L 670.0 524.0 L 676.0 524.0 L 677.0 523.0 L 682.0 523.0 L 683.0 522.0 L 687.0 522.0 L 688.0 521.0 L 692.0 521.0 L 693.0 520.0 L 697.0 520.0 L 698.0 519.0 L 701.0 519.0 L 702.0 518.0 L 705.0 518.0 L 706.0 517.0 L 708.0 517.0 L 709.0 516.0 L 712.0 516.0 L 713.0 515.0 L 715.0 515.0 L 716.0 514.0 L 719.0 514.0 L 722.0 512.0 L 724.0 512.0 L 725.0 511.0 L 727.0 511.0 L 728.0 510.0 L 730.0 510.0 L 731.0 509.0 L 732.0 509.0 L 733.0 508.0 L 735.0 508.0 L 740.0 505.0 L 742.0 505.0 L 743.0 504.0 L 744.0 504.0 L 745.0 503.0 L 746.0 503.0 L 747.0 502.0 L 750.0 501.0 L 752.0 499.0 L 755.0 498.0 L 757.0 496.0 L 760.0 495.0 L 763.0 492.0 L 764.0 492.0 L 766.0 490.0 L 767.0 490.0 L 776.0 481.0 L 777.0 481.0 L 777.0 480.0 L 782.0 475.0 L 782.0 474.0 L 786.0 469.0 L 787.0 466.0 L 789.0 464.0 L 789.0 462.0 L 791.0 459.0 L 791.0 457.0 L 792.0 456.0 L 792.0 454.0 L 793.0 453.0 L 793.0 449.0 L 794.0 448.0 L 794.0 439.0 L 795.0 438.0 L 795.0 436.0 L 794.0 435.0 L 794.0 426.0 L 793.0 425.0 L 793.0 422.0 L 792.0 421.0 L 792.0 418.0 L 790.0 415.0 L 790.0 413.0 L 789.0 412.0 L 789.0 411.0 L 787.0 409.0 L 787.0 408.0 L 786.0 407.0 L 786.0 406.0 L 784.0 404.0 L 784.0 403.0 L 780.0 399.0 L 780.0 398.0 L 771.0 390.0 L 770.0 390.0 L 768.0 388.0 L 767.0 388.0 L 765.0 386.0 L 764.0 386.0 L 761.0 384.0 L 759.0 384.0 L 756.0 382.0 L 754.0 382.0 L 753.0 381.0 L 751.0 381.0 L 750.0 380.0 L 746.0 380.0 L 745.0 379.0 L 738.0 379.0 L 737.0 378.0 L 729.0 378.0 L 728.0 379.0 L 721.0 379.0 L 720.0 380.0 L 717.0 380.0 L 716.0 381.0 L 713.0 381.0 L 712.0 382.0 L 710.0 382.0 L 709.0 383.0 L 707.0 383.0 L 706.0 384.0 L 704.0 384.0 L 703.0 385.0 L 702.0 385.0 L 697.0 388.0 L 695.0 388.0 L 694.0 389.0 L 691.0 390.0 L 689.0 392.0 L 688.0 392.0 L 687.0 393.0 L 684.0 394.0 L 682.0 396.0 L 679.0 397.0 L 677.0 399.0 L 676.0 399.0 L 673.0 402.0 L 672.0 402.0 L 670.0 404.0 L 669.0 404.0 L 666.0 407.0 L 665.0 407.0 L 656.0 415.0 L 655.0 415.0 L 649.0 421.0 L 648.0 421.0 L 633.0 436.0 L 632.0 436.0 L 629.0 439.0 L 629.0 440.0 L 614.0 455.0 L 614.0 456.0 L 600.0 471.0 L 600.0 472.0 L 597.0 475.0 L 597.0 476.0 L 592.0 481.0 L 592.0 482.0 L 589.0 485.0 L 589.0 486.0 L 586.0 489.0 L 586.0 490.0 L 582.0 494.0 L 582.0 495.0 L 580.0 497.0 L 580.0 498.0 L 577.0 501.0 L 577.0 502.0 L 574.0 505.0 L 574.0 506.0 L 572.0 508.0 L 572.0 509.0 L 570.0 511.0 L 570.0 512.0 L 568.0 514.0 L 568.0 515.0 L 565.0 518.0 L 564.0 521.0 L 561.0 524.0 L 474.0 524.0 L 473.0 523.0 L 449.0 523.0 L 448.0 522.0 L 448.0 240.0 L 449.0 239.0 L 474.0 239.0 L 475.0 238.0 L 532.0 238.0 L 533.0 237.0 L 566.0 237.0 L 567.0 238.0 L 567.0 239.0 L 569.0 241.0 L 569.0 242.0 L 572.0 245.0 L 572.0 246.0 L 574.0 248.0 L 574.0 249.0 L 580.0 256.0 L 580.0 257.0 L 584.0 261.0 L 584.0 262.0 L 587.0 265.0 L 587.0 266.0 L 591.0 270.0 L 591.0 271.0 L 595.0 275.0 L 595.0 276.0 L 599.0 280.0 L 599.0 281.0 L 605.0 287.0 L 605.0 288.0 L 613.0 296.0 L 613.0 297.0 L 645.0 329.0 L 646.0 329.0 L 652.0 335.0 L 653.0 335.0 L 657.0 339.0 L 658.0 339.0 L 662.0 343.0 L 663.0 343.0 L 666.0 346.0 L 667.0 346.0 L 669.0 348.0 L 670.0 348.0 L 672.0 350.0 L 673.0 350.0 L 676.0 353.0 L 677.0 353.0 L 678.0 354.0 L 679.0 354.0 L 681.0 356.0 L 684.0 357.0 L 686.0 359.0 L 687.0 359.0 L 688.0 360.0 L 689.0 360.0 L 690.0 361.0 L 691.0 361.0 L 692.0 362.0 L 693.0 362.0 L 694.0 363.0 L 695.0 363.0 L 696.0 364.0 L 697.0 364.0 L 698.0 365.0 L 699.0 365.0 L 704.0 368.0 L 706.0 368.0 L 707.0 369.0 L 710.0 369.0 L 711.0 370.0 L 713.0 370.0 L 714.0 371.0 L 718.0 371.0 L 719.0 372.0 L 723.0 372.0 L 724.0 373.0 L 740.0 373.0 L 741.0 372.0 L 746.0 372.0 L 747.0 371.0 L 750.0 371.0 L 751.0 370.0 L 753.0 370.0 L 754.0 369.0 L 756.0 369.0 L 759.0 367.0 L 761.0 367.0 L 763.0 365.0 L 766.0 364.0 L 768.0 362.0 L 769.0 362.0 L 771.0 360.0 L 772.0 360.0 L 782.0 350.0 L 782.0 349.0 L 786.0 344.0 L 786.0 343.0 L 787.0 342.0 L 787.0 341.0 L 790.0 336.0 L 790.0 334.0 L 791.0 333.0 L 791.0 331.0 L 792.0 330.0 L 792.0 327.0 L 793.0 326.0 L 793.0 320.0 L 794.0 319.0 L 794.0 312.0 L 793.0 311.0 L 793.0 305.0 L 792.0 304.0 L 792.0 301.0 L 791.0 300.0 L 791.0 298.0 L 790.0 297.0 L 790.0 295.0 L 789.0 294.0 L 789.0 293.0 L 788.0 292.0 L 788.0 291.0 L 787.0 290.0 L 786.0 287.0 L 784.0 285.0 L 784.0 284.0 L 780.0 280.0 L 780.0 279.0 L 772.0 271.0 L 771.0 271.0 L 768.0 268.0 L 767.0 268.0 L 765.0 266.0 L 764.0 266.0 L 761.0 263.0 L 758.0 262.0 L 756.0 260.0 L 755.0 260.0 L 754.0 259.0 L 753.0 259.0 L 752.0 258.0 L 751.0 258.0 L 750.0 257.0 L 749.0 257.0 L 748.0 256.0 L 747.0 256.0 L 746.0 255.0 L 745.0 255.0 L 740.0 252.0 L 738.0 252.0 L 735.0 250.0 L 733.0 250.0 L 732.0 249.0 L 730.0 249.0 L 729.0 248.0 L 727.0 248.0 L 726.0 247.0 L 724.0 247.0 L 723.0 246.0 L 721.0 246.0 L 720.0 245.0 L 718.0 245.0 L 717.0 244.0 L 714.0 244.0 L 713.0 243.0 L 710.0 243.0 L 709.0 242.0 L 707.0 242.0 L 706.0 241.0 L 702.0 241.0 L 701.0 240.0 L 697.0 240.0 L 696.0 239.0 L 692.0 239.0 L 691.0 238.0 L 686.0 238.0 L 685.0 237.0 L 680.0 237.0 L 679.0 236.0 L 673.0 236.0 L 672.0 235.0 L 664.0 235.0 L 663.0 234.0 L 655.0 234.0 L 654.0 233.0 L 641.0 233.0 L 640.0 232.0 L 616.0 232.0 L 615.0 231.0 L 571.0 231.0 L 570.0 230.0 L 570.0 229.0 L 568.0 227.0 L 568.0 226.0 L 565.0 223.0 L 565.0 222.0 L 563.0 220.0 L 563.0 219.0 L 560.0 216.0 L 560.0 215.0 L 558.0 213.0 L 558.0 212.0 L 556.0 210.0 L 556.0 209.0 L 554.0 207.0 L 554.0 206.0 L 551.0 203.0 L 551.0 202.0 L 547.0 197.0 L 546.0 194.0 L 544.0 192.0 L 544.0 191.0 L 540.0 186.0 L 539.0 183.0 L 535.0 178.0 L 535.0 177.0 L 534.0 176.0 L 533.0 173.0 L 531.0 171.0 L 530.0 168.0 L 528.0 166.0 L 528.0 165.0 L 527.0 164.0 L 526.0 161.0 L 524.0 159.0 L 524.0 158.0 L 523.0 157.0 L 523.0 156.0 L 522.0 155.0 L 522.0 154.0 L 521.0 153.0 L 521.0 152.0 L 520.0 151.0 L 519.0 148.0 L 517.0 146.0 L 517.0 145.0 L 516.0 144.0 L 516.0 143.0 L 515.0 142.0 L 515.0 141.0 L 512.0 136.0 L 512.0 134.0 L 511.0 133.0 L 511.0 132.0 L 508.0 127.0 L 508.0 125.0 L 505.0 120.0 L 505.0 118.0 L 504.0 117.0 L 504.0 115.0 L 503.0 114.0 L 503.0 112.0 L 502.0 111.0 L 502.0 109.0 L 502.0 111.0 L 503.0 112.0 L 503.0 115.0 L 504.0 116.0 L 504.0 118.0 L 505.0 119.0 L 505.0 121.0 L 506.0 122.0 L 506.0 124.0 L 507.0 125.0 L 507.0 127.0 L 508.0 128.0 L 508.0 130.0 L 509.0 131.0 L 509.0 133.0 L 511.0 136.0 L 511.0 138.0 L 513.0 141.0 L 513.0 143.0 L 516.0 148.0 L 516.0 150.0 L 517.0 151.0 L 517.0 152.0 L 520.0 157.0 L 520.0 159.0 L 521.0 160.0 L 521.0 161.0 L 522.0 162.0 L 522.0 163.0 L 523.0 164.0 L 523.0 165.0 L 524.0 166.0 L 524.0 167.0 L 525.0 168.0 L 525.0 169.0 L 526.0 170.0 L 526.0 171.0 L 527.0 172.0 L 528.0 175.0 L 530.0 177.0 L 530.0 178.0 L 531.0 179.0 L 531.0 180.0 L 532.0 181.0 L 532.0 182.0 L 533.0 183.0 L 533.0 184.0 L 534.0 185.0 L 535.0 188.0 L 537.0 190.0 L 537.0 191.0 L 538.0 192.0 L 539.0 195.0 L 541.0 197.0 L 541.0 198.0 L 542.0 199.0 L 542.0 200.0 L 544.0 202.0 L 544.0 203.0 L 545.0 204.0 L 546.0 207.0 L 550.0 212.0 L 551.0 215.0 L 553.0 217.0 L 553.0 218.0 L 555.0 220.0 L 555.0 221.0 L 557.0 223.0 L 557.0 224.0 L 559.0 226.0 L 559.0 227.0 L 561.0 229.0 L 561.0 230.0 L 560.0 231.0 L 449.0 231.0 L 448.0 230.0 L 448.0 110.0 L 449.0 109.0 L 449.0 98.0 L 450.0 97.0 L 450.0 90.0 L 451.0 89.0 L 451.0 85.0 L 452.0 84.0 L 452.0 80.0 L 453.0 79.0 L 453.0 77.0 L 454.0 76.0 L 454.0 74.0 L 455.0 73.0 L 455.0 71.0 L 456.0 70.0 L 456.0 68.0 L 458.0 65.0 L 458.0 63.0 L 460.0 61.0 L 460.0 60.0 L 461.0 59.0 L 461.0 58.0 L 462.0 57.0 L 463.0 54.0 L 465.0 52.0 L 465.0 51.0 L 468.0 48.0 L 468.0 47.0 L 482.0 33.0 L 483.0 33.0 L 485.0 31.0 L 486.0 31.0 L 491.0 27.0 L 492.0 27.0 L 493.0 26.0 L 494.0 26.0 L 495.0 25.0 L 496.0 25.0 L 497.0 24.0 L 498.0 24.0 L 503.0 21.0 L 505.0 21.0 L 508.0 19.0 L 511.0 19.0 L 512.0 18.0 L 514.0 18.0 L 515.0 17.0 L 518.0 17.0 L 519.0 16.0 L 522.0 16.0 L 523.0 15.0 L 528.0 15.0 L 529.0 14.0 L 537.0 14.0 L 538.0 13.0 L 560.0 13.0 L 561.0 14.0 L 567.0 14.0 L 568.0 15.0 L 573.0 15.0 L 574.0 16.0 L 578.0 16.0 L 579.0 17.0 L 582.0 17.0 L 583.0 18.0 L 585.0 18.0 L 586.0 19.0 L 588.0 19.0 L 589.0 20.0 L 591.0 20.0 L 592.0 21.0 L 593.0 21.0 L 594.0 22.0 L 595.0 22.0 L 596.0 23.0 L 597.0 23.0 L 598.0 24.0 L 599.0 24.0 L 600.0 25.0 L 603.0 26.0 L 605.0 28.0 L 606.0 28.0 L 608.0 30.0 L 609.0 30.0 L 613.0 34.0 L 614.0 34.0 L 619.0 39.0 L 619.0 40.0 L 623.0 44.0 L 624.0 47.0 L 626.0 49.0 L 626.0 50.0 L 628.0 53.0 L 628.0 55.0 L 630.0 58.0 L 630.0 61.0 L 631.0 62.0 L 631.0 68.0 L 632.0 69.0 L 632.0 72.0 L 631.0 73.0 L 631.0 80.0 L 630.0 81.0 L 630.0 84.0 L 628.0 87.0 L 628.0 89.0 L 627.0 90.0 L 626.0 93.0 L 624.0 95.0 L 624.0 96.0 L 619.0 101.0 L 619.0 102.0 L 617.0 104.0 L 616.0 104.0 L 612.0 108.0 L 611.0 108.0 L 610.0 109.0 L 609.0 109.0 L 607.0 111.0 L 606.0 111.0 L 605.0 112.0 L 603.0 112.0 L 600.0 114.0 L 597.0 114.0 L 596.0 115.0 L 592.0 115.0 L 591.0 116.0 L 579.0 116.0 L 578.0 115.0 L 573.0 115.0 L 572.0 114.0 L 568.0 114.0 L 567.0 113.0 L 565.0 113.0 L 564.0 112.0 L 562.0 112.0 L 561.0 111.0 L 560.0 111.0 L 561.0 111.0 L 564.0 113.0 L 566.0 113.0 L 569.0 115.0 L 572.0 115.0 L 573.0 116.0 L 576.0 116.0 L 577.0 117.0 L 582.0 117.0 L 583.0 118.0 L 592.0 118.0 L 593.0 117.0 L 599.0 117.0 L 600.0 116.0 L 603.0 116.0 L 604.0 115.0 L 606.0 115.0 L 607.0 114.0 L 609.0 114.0 L 610.0 113.0 L 611.0 113.0 L 612.0 112.0 L 613.0 112.0 L 614.0 111.0 L 617.0 110.0 L 620.0 107.0 L 621.0 107.0 L 628.0 100.0 L 628.0 99.0 L 631.0 96.0 L 631.0 95.0 L 632.0 94.0 L 632.0 93.0 L 635.0 88.0 L 635.0 86.0 L 636.0 85.0 L 636.0 83.0 L 637.0 82.0 L 637.0 78.0 L 638.0 77.0 L 638.0 63.0 L 637.0 62.0 L 637.0 58.0 L 636.0 57.0 L 636.0 55.0 L 635.0 54.0 L 635.0 52.0 L 634.0 51.0 L 634.0 49.0 L 633.0 48.0 L 632.0 45.0 L 628.0 40.0 L 628.0 39.0 L 615.0 26.0 L 614.0 26.0 L 612.0 24.0 L 609.0 23.0 L 607.0 21.0 L 606.0 21.0 L 605.0 20.0 L 604.0 20.0 L 603.0 19.0 L 602.0 19.0 L 597.0 16.0 L 595.0 16.0 L 592.0 14.0 L 590.0 14.0 L 589.0 13.0 L 587.0 13.0 L 586.0 12.0 L 583.0 12.0 L 582.0 11.0 L 579.0 11.0 L 578.0 10.0 L 573.0 10.0 L 572.0 9.0 L 566.0 9.0 L 565.0 8.0 L 530.0 8.0 L 529.0 9.0 L 523.0 9.0 L 522.0 10.0 L 517.0 10.0 L 516.0 11.0 L 513.0 11.0 L 512.0 12.0 L 509.0 12.0 L 508.0 13.0 L 506.0 13.0 L 505.0 14.0 L 502.0 14.0 L 501.0 15.0 L 499.0 15.0 L 496.0 17.0 L 494.0 17.0 L 491.0 19.0 L 489.0 19.0 L 488.0 20.0 L 485.0 21.0 L 483.0 23.0 L 482.0 23.0 L 481.0 24.0 L 478.0 25.0 L 476.0 27.0 L 475.0 27.0 L 473.0 29.0 L 472.0 29.0 L 468.0 33.0 L 467.0 33.0 L 454.0 46.0 L 454.0 47.0 L 451.0 50.0 L 451.0 51.0 L 449.0 53.0 L 448.0 56.0 L 446.0 58.0 L 446.0 59.0 L 443.0 64.0 L 443.0 66.0 L 441.0 69.0 L 441.0 71.0 L 440.0 72.0 L 440.0 74.0 L 439.0 75.0 L 439.0 77.0 L 438.0 78.0 L 438.0 81.0 L 437.0 82.0 L 437.0 86.0 L 436.0 87.0 L 436.0 91.0 L 435.0 92.0 L 435.0 99.0 L 434.0 100.0 L 434.0 111.0 L 433.0 112.0 L 433.0 230.0 L 432.0 231.0 L 372.0 231.0 L 371.0 230.0 L 371.0 225.0 L 370.0 224.0 L 370.0 108.0 L 369.0 107.0 L 369.0 98.0 L 368.0 97.0 L 368.0 91.0 L 367.0 90.0 L 367.0 86.0 L 366.0 85.0 L 366.0 81.0 L 365.0 80.0 L 365.0 78.0 L 364.0 77.0 L 364.0 75.0 L 363.0 74.0 L 363.0 72.0 L 362.0 71.0 L 362.0 69.0 L 360.0 66.0 L 360.0 64.0 L 359.0 63.0 L 359.0 62.0 L 358.0 61.0 L 357.0 58.0 L 355.0 56.0 L 354.0 53.0 L 352.0 51.0 L 352.0 50.0 L 349.0 47.0 L 349.0 46.0 L 343.0 40.0 L 343.0 39.0 L 341.0 37.0 L 340.0 37.0 L 334.0 31.0 L 333.0 31.0 L 330.0 28.0 L 329.0 28.0 L 327.0 26.0 L 324.0 25.0 L 322.0 23.0 L 321.0 23.0 L 320.0 22.0 L 319.0 22.0 L 318.0 21.0 L 317.0 21.0 L 316.0 20.0 L 315.0 20.0 L 310.0 17.0 L 308.0 17.0 L 307.0 16.0 L 305.0 16.0 L 302.0 14.0 L 299.0 14.0 L 298.0 13.0 L 296.0 13.0 L 295.0 12.0 L 292.0 12.0 L 291.0 11.0 L 287.0 11.0 L 286.0 10.0 L 282.0 10.0 L 281.0 9.0 L 274.0 9.0 L 273.0 8.0 L 243.0 8.0 L 242.0 9.0 L 235.0 9.0 L 234.0 10.0 L 230.0 10.0 L 229.0 11.0 L 226.0 11.0 L 225.0 12.0 L 222.0 12.0 L 221.0 13.0 L 219.0 13.0 L 218.0 14.0 L 216.0 14.0 L 215.0 15.0 L 213.0 15.0 L 210.0 17.0 L 208.0 17.0 L 207.0 18.0 L 206.0 18.0 L 205.0 19.0 L 204.0 19.0 L 203.0 20.0 Z M 371.0 239.0 L 432.0 239.0 L 433.0 240.0 L 433.0 522.0 L 432.0 523.0 L 372.0 523.0 L 371.0 522.0 L 371.0 504.0 L 370.0 503.0 L 370.0 499.0 L 371.0 498.0 L 371.0 497.0 L 370.0 496.0 L 370.0 243.0 L 371.0 242.0 L 370.0 241.0 L 370.0 240.0 Z M 33.0 407.0 L 35.0 405.0 L 35.0 404.0 L 46.0 393.0 L 47.0 393.0 L 49.0 391.0 L 50.0 391.0 L 51.0 390.0 L 52.0 390.0 L 57.0 387.0 L 59.0 387.0 L 60.0 386.0 L 63.0 386.0 L 64.0 385.0 L 78.0 385.0 L 79.0 386.0 L 83.0 386.0 L 84.0 387.0 L 86.0 387.0 L 87.0 388.0 L 89.0 388.0 L 90.0 389.0 L 91.0 389.0 L 92.0 390.0 L 93.0 390.0 L 94.0 391.0 L 95.0 391.0 L 96.0 392.0 L 97.0 392.0 L 98.0 393.0 L 99.0 393.0 L 100.0 394.0 L 101.0 394.0 L 102.0 395.0 L 103.0 395.0 L 104.0 396.0 L 107.0 397.0 L 109.0 399.0 L 110.0 399.0 L 112.0 401.0 L 113.0 401.0 L 115.0 403.0 L 116.0 403.0 L 118.0 405.0 L 119.0 405.0 L 121.0 407.0 L 122.0 407.0 L 125.0 410.0 L 126.0 410.0 L 129.0 413.0 L 130.0 413.0 L 134.0 417.0 L 135.0 417.0 L 139.0 421.0 L 140.0 421.0 L 145.0 426.0 L 146.0 426.0 L 154.0 434.0 L 155.0 434.0 L 187.0 466.0 L 187.0 467.0 L 195.0 475.0 L 195.0 476.0 L 201.0 482.0 L 201.0 483.0 L 205.0 487.0 L 205.0 488.0 L 210.0 493.0 L 210.0 494.0 L 213.0 497.0 L 213.0 498.0 L 217.0 502.0 L 217.0 503.0 L 220.0 506.0 L 220.0 507.0 L 223.0 510.0 L 223.0 511.0 L 226.0 514.0 L 226.0 515.0 L 229.0 518.0 L 229.0 519.0 L 231.0 521.0 L 231.0 522.0 L 232.0 523.0 L 231.0 524.0 L 199.0 524.0 L 198.0 523.0 L 181.0 523.0 L 180.0 522.0 L 169.0 522.0 L 168.0 521.0 L 160.0 521.0 L 159.0 520.0 L 152.0 520.0 L 151.0 519.0 L 145.0 519.0 L 144.0 518.0 L 139.0 518.0 L 138.0 517.0 L 134.0 517.0 L 133.0 516.0 L 129.0 516.0 L 128.0 515.0 L 124.0 515.0 L 123.0 514.0 L 120.0 514.0 L 119.0 513.0 L 116.0 513.0 L 115.0 512.0 L 112.0 512.0 L 111.0 511.0 L 109.0 511.0 L 108.0 510.0 L 106.0 510.0 L 105.0 509.0 L 102.0 509.0 L 101.0 508.0 L 99.0 508.0 L 98.0 507.0 L 96.0 507.0 L 93.0 505.0 L 91.0 505.0 L 88.0 503.0 L 86.0 503.0 L 81.0 500.0 L 79.0 500.0 L 78.0 499.0 L 77.0 499.0 L 76.0 498.0 L 75.0 498.0 L 74.0 497.0 L 73.0 497.0 L 72.0 496.0 L 69.0 495.0 L 67.0 493.0 L 66.0 493.0 L 65.0 492.0 L 62.0 491.0 L 60.0 489.0 L 59.0 489.0 L 56.0 486.0 L 55.0 486.0 L 52.0 483.0 L 51.0 483.0 L 37.0 469.0 L 37.0 468.0 L 34.0 465.0 L 33.0 462.0 L 31.0 460.0 L 31.0 459.0 L 29.0 456.0 L 29.0 454.0 L 28.0 453.0 L 28.0 451.0 L 27.0 450.0 L 27.0 447.0 L 26.0 446.0 L 26.0 440.0 L 25.0 439.0 L 25.0 432.0 L 26.0 431.0 L 26.0 425.0 L 27.0 424.0 L 27.0 421.0 L 28.0 420.0 L 28.0 417.0 L 29.0 416.0 L 29.0 415.0 L 30.0 414.0 L 30.0 413.0 L 31.0 412.0 L 31.0 411.0 L 32.0 410.0 Z M 771.0 408.0 L 771.0 409.0 L 774.0 414.0 L 774.0 416.0 L 775.0 417.0 L 775.0 419.0 L 776.0 420.0 L 776.0 423.0 L 777.0 424.0 L 777.0 429.0 L 778.0 430.0 L 778.0 440.0 L 777.0 441.0 L 777.0 446.0 L 776.0 447.0 L 776.0 450.0 L 775.0 451.0 L 775.0 453.0 L 774.0 454.0 L 774.0 456.0 L 773.0 457.0 L 773.0 458.0 L 772.0 459.0 L 771.0 462.0 L 769.0 464.0 L 769.0 465.0 L 767.0 467.0 L 767.0 468.0 L 763.0 472.0 L 763.0 473.0 L 758.0 478.0 L 757.0 478.0 L 750.0 485.0 L 749.0 485.0 L 747.0 487.0 L 746.0 487.0 L 744.0 489.0 L 743.0 489.0 L 738.0 493.0 L 737.0 493.0 L 736.0 494.0 L 733.0 495.0 L 731.0 497.0 L 729.0 497.0 L 728.0 498.0 L 727.0 498.0 L 726.0 499.0 L 725.0 499.0 L 720.0 502.0 L 718.0 502.0 L 713.0 505.0 L 711.0 505.0 L 710.0 506.0 L 708.0 506.0 L 707.0 507.0 L 705.0 507.0 L 704.0 508.0 L 702.0 508.0 L 701.0 509.0 L 699.0 509.0 L 698.0 510.0 L 696.0 510.0 L 695.0 511.0 L 692.0 511.0 L 691.0 512.0 L 688.0 512.0 L 687.0 513.0 L 684.0 513.0 L 683.0 514.0 L 680.0 514.0 L 679.0 515.0 L 675.0 515.0 L 674.0 516.0 L 670.0 516.0 L 669.0 517.0 L 665.0 517.0 L 664.0 518.0 L 659.0 518.0 L 658.0 519.0 L 652.0 519.0 L 651.0 520.0 L 644.0 520.0 L 643.0 521.0 L 634.0 521.0 L 633.0 522.0 L 623.0 522.0 L 622.0 523.0 L 606.0 523.0 L 605.0 524.0 L 573.0 524.0 L 572.0 523.0 L 572.0 522.0 L 574.0 520.0 L 574.0 519.0 L 576.0 517.0 L 576.0 516.0 L 578.0 514.0 L 578.0 513.0 L 581.0 510.0 L 581.0 509.0 L 584.0 506.0 L 584.0 505.0 L 587.0 502.0 L 587.0 501.0 L 591.0 497.0 L 591.0 496.0 L 595.0 492.0 L 595.0 491.0 L 600.0 486.0 L 600.0 485.0 L 606.0 479.0 L 606.0 478.0 L 612.0 472.0 L 612.0 471.0 L 626.0 457.0 L 626.0 456.0 L 639.0 443.0 L 640.0 443.0 L 652.0 431.0 L 653.0 431.0 L 660.0 424.0 L 661.0 424.0 L 666.0 419.0 L 667.0 419.0 L 670.0 416.0 L 671.0 416.0 L 675.0 412.0 L 676.0 412.0 L 679.0 409.0 L 680.0 409.0 L 682.0 407.0 L 683.0 407.0 L 686.0 404.0 L 687.0 404.0 L 689.0 402.0 L 690.0 402.0 L 695.0 398.0 L 698.0 397.0 L 700.0 395.0 L 701.0 395.0 L 702.0 394.0 L 703.0 394.0 L 704.0 393.0 L 705.0 393.0 L 706.0 392.0 L 707.0 392.0 L 712.0 389.0 L 714.0 389.0 L 715.0 388.0 L 717.0 388.0 L 718.0 387.0 L 720.0 387.0 L 721.0 386.0 L 725.0 386.0 L 726.0 385.0 L 740.0 385.0 L 741.0 386.0 L 744.0 386.0 L 745.0 387.0 L 747.0 387.0 L 748.0 388.0 L 749.0 388.0 L 750.0 389.0 L 753.0 390.0 L 755.0 392.0 L 756.0 392.0 L 759.0 395.0 L 760.0 395.0 L 766.0 401.0 L 766.0 402.0 L 769.0 405.0 L 769.0 406.0 Z M 577.0 238.0 L 578.0 237.0 L 610.0 237.0 L 611.0 238.0 L 629.0 238.0 L 630.0 239.0 L 641.0 239.0 L 642.0 240.0 L 651.0 240.0 L 652.0 241.0 L 659.0 241.0 L 660.0 242.0 L 666.0 242.0 L 667.0 243.0 L 672.0 243.0 L 673.0 244.0 L 678.0 244.0 L 679.0 245.0 L 682.0 245.0 L 683.0 246.0 L 687.0 246.0 L 688.0 247.0 L 691.0 247.0 L 692.0 248.0 L 695.0 248.0 L 696.0 249.0 L 699.0 249.0 L 700.0 250.0 L 702.0 250.0 L 703.0 251.0 L 706.0 251.0 L 707.0 252.0 L 709.0 252.0 L 710.0 253.0 L 712.0 253.0 L 713.0 254.0 L 715.0 254.0 L 718.0 256.0 L 720.0 256.0 L 725.0 259.0 L 727.0 259.0 L 728.0 260.0 L 729.0 260.0 L 730.0 261.0 L 731.0 261.0 L 732.0 262.0 L 733.0 262.0 L 734.0 263.0 L 737.0 264.0 L 739.0 266.0 L 742.0 267.0 L 744.0 269.0 L 745.0 269.0 L 747.0 271.0 L 748.0 271.0 L 751.0 274.0 L 752.0 274.0 L 758.0 280.0 L 759.0 280.0 L 767.0 289.0 L 767.0 290.0 L 769.0 292.0 L 769.0 293.0 L 771.0 295.0 L 771.0 296.0 L 773.0 299.0 L 773.0 301.0 L 774.0 302.0 L 774.0 304.0 L 775.0 305.0 L 775.0 307.0 L 776.0 308.0 L 776.0 313.0 L 777.0 314.0 L 777.0 323.0 L 776.0 324.0 L 776.0 328.0 L 775.0 329.0 L 775.0 332.0 L 774.0 333.0 L 774.0 335.0 L 773.0 336.0 L 773.0 338.0 L 772.0 339.0 L 772.0 340.0 L 771.0 341.0 L 770.0 344.0 L 767.0 347.0 L 767.0 348.0 L 756.0 359.0 L 755.0 359.0 L 753.0 361.0 L 752.0 361.0 L 750.0 363.0 L 749.0 363.0 L 748.0 364.0 L 746.0 364.0 L 745.0 365.0 L 743.0 365.0 L 742.0 366.0 L 739.0 366.0 L 738.0 367.0 L 725.0 367.0 L 724.0 366.0 L 721.0 366.0 L 720.0 365.0 L 717.0 365.0 L 716.0 364.0 L 714.0 364.0 L 713.0 363.0 L 712.0 363.0 L 711.0 362.0 L 710.0 362.0 L 709.0 361.0 L 708.0 361.0 L 707.0 360.0 L 706.0 360.0 L 705.0 359.0 L 704.0 359.0 L 703.0 358.0 L 700.0 357.0 L 698.0 355.0 L 695.0 354.0 L 693.0 352.0 L 692.0 352.0 L 687.0 348.0 L 684.0 347.0 L 681.0 344.0 L 680.0 344.0 L 677.0 341.0 L 676.0 341.0 L 673.0 338.0 L 672.0 338.0 L 669.0 335.0 L 668.0 335.0 L 664.0 331.0 L 663.0 331.0 L 658.0 326.0 L 657.0 326.0 L 651.0 320.0 L 650.0 320.0 L 636.0 306.0 L 635.0 306.0 L 627.0 298.0 L 627.0 297.0 L 611.0 281.0 L 611.0 280.0 L 604.0 273.0 L 604.0 272.0 L 599.0 267.0 L 599.0 266.0 L 593.0 260.0 L 593.0 259.0 L 585.0 250.0 L 585.0 249.0 L 579.0 242.0 L 579.0 241.0 L 577.0 239.0 Z M 227.0 238.0 L 227.0 239.0 L 224.0 242.0 L 224.0 243.0 L 220.0 247.0 L 220.0 248.0 L 217.0 251.0 L 217.0 252.0 L 213.0 256.0 L 213.0 257.0 L 209.0 261.0 L 209.0 262.0 L 204.0 267.0 L 204.0 268.0 L 198.0 274.0 L 198.0 275.0 L 191.0 282.0 L 191.0 283.0 L 156.0 318.0 L 155.0 318.0 L 147.0 326.0 L 146.0 326.0 L 141.0 331.0 L 140.0 331.0 L 136.0 335.0 L 135.0 335.0 L 132.0 338.0 L 131.0 338.0 L 124.0 344.0 L 123.0 344.0 L 121.0 346.0 L 120.0 346.0 L 118.0 348.0 L 117.0 348.0 L 115.0 350.0 L 114.0 350.0 L 112.0 352.0 L 111.0 352.0 L 106.0 356.0 L 105.0 356.0 L 104.0 357.0 L 103.0 357.0 L 102.0 358.0 L 101.0 358.0 L 100.0 359.0 L 99.0 359.0 L 98.0 360.0 L 97.0 360.0 L 96.0 361.0 L 95.0 361.0 L 90.0 364.0 L 88.0 364.0 L 87.0 365.0 L 84.0 365.0 L 83.0 366.0 L 80.0 366.0 L 79.0 367.0 L 65.0 367.0 L 64.0 366.0 L 61.0 366.0 L 60.0 365.0 L 58.0 365.0 L 57.0 364.0 L 56.0 364.0 L 55.0 363.0 L 52.0 362.0 L 50.0 360.0 L 49.0 360.0 L 46.0 357.0 L 45.0 357.0 L 38.0 350.0 L 38.0 349.0 L 35.0 346.0 L 35.0 345.0 L 33.0 343.0 L 33.0 342.0 L 31.0 339.0 L 31.0 337.0 L 29.0 334.0 L 29.0 331.0 L 28.0 330.0 L 28.0 326.0 L 27.0 325.0 L 27.0 313.0 L 28.0 312.0 L 28.0 308.0 L 29.0 307.0 L 29.0 304.0 L 30.0 303.0 L 30.0 301.0 L 31.0 300.0 L 31.0 299.0 L 32.0 298.0 L 33.0 295.0 L 35.0 293.0 L 35.0 292.0 L 37.0 290.0 L 37.0 289.0 L 42.0 284.0 L 42.0 283.0 L 44.0 281.0 L 45.0 281.0 L 52.0 274.0 L 53.0 274.0 L 55.0 272.0 L 56.0 272.0 L 58.0 270.0 L 59.0 270.0 L 64.0 266.0 L 65.0 266.0 L 66.0 265.0 L 67.0 265.0 L 68.0 264.0 L 69.0 264.0 L 70.0 263.0 L 71.0 263.0 L 72.0 262.0 L 73.0 262.0 L 74.0 261.0 L 75.0 261.0 L 80.0 258.0 L 82.0 258.0 L 83.0 257.0 L 84.0 257.0 L 85.0 256.0 L 87.0 256.0 L 90.0 254.0 L 92.0 254.0 L 93.0 253.0 L 95.0 253.0 L 96.0 252.0 L 98.0 252.0 L 99.0 251.0 L 101.0 251.0 L 102.0 250.0 L 104.0 250.0 L 105.0 249.0 L 108.0 249.0 L 109.0 248.0 L 112.0 248.0 L 113.0 247.0 L 117.0 247.0 L 118.0 246.0 L 121.0 246.0 L 122.0 245.0 L 127.0 245.0 L 128.0 244.0 L 132.0 244.0 L 133.0 243.0 L 139.0 243.0 L 140.0 242.0 L 145.0 242.0 L 146.0 241.0 L 154.0 241.0 L 155.0 240.0 L 164.0 240.0 L 165.0 239.0 L 176.0 239.0 L 177.0 238.0 L 199.0 238.0 L 200.0 237.0 L 226.0 237.0 Z" fill="#2a1004" fill-rule="evenodd"/>
</svg>
