<svg width="250" height="67" viewBox="0 0 250 67" fill="none" xmlns="http://www.w3.org/2000/svg">
<path d="M83.1415 1.11471C81.3003 1.20271 79.8331 1.46672 78.7399 1.87741C77.6467 2.28809 76.611 2.96278 75.6904 3.93082C74.9712 4.60552 74.4534 5.36821 74.1082 6.21891C73.7629 7.04028 73.504 8.09632 73.389 9.38704C73.1588 11.0884 73.0437 13.1125 73.0437 15.4299V51.5994C73.0437 54.9729 73.2451 57.4663 73.6191 59.109C73.9931 60.7517 74.6835 62.0425 75.6904 63.0398C77.4453 64.7706 79.9482 65.7386 83.1415 65.8853V67H52.3878V65.8853C54.2578 65.7973 55.7537 65.5039 56.8757 65.0639C58.0265 64.6239 59.0334 63.9492 59.9252 63.0398C60.9321 61.9838 61.5938 60.6637 61.9678 59.0503C62.3418 57.4369 62.5144 54.9435 62.5144 51.5994V7.71497L37.7158 67.0293H36.7089L12.0829 8.59501V51.5994C12.0829 54.9729 12.2555 57.4663 12.6295 59.0503C13.0035 60.6637 13.6939 61.9838 14.672 63.0398C15.5639 63.9785 16.5995 64.6826 17.7215 65.0933C18.8723 65.5039 20.3395 65.7679 22.1807 65.8853V67H0V65.8853C1.8412 65.7973 3.3084 65.5333 4.45915 65.0933C5.6099 64.6532 6.6168 63.9785 7.50863 63.0398C8.51553 61.9838 9.17721 60.6637 9.55121 59.0503C9.9252 57.4369 10.0978 54.9435 10.0978 51.5994V15.4006C10.0978 13.9046 10.0403 12.4672 9.95397 11.1178C9.78136 8.68301 9.43613 6.92294 8.86076 5.80823C8.05524 4.28284 6.96203 3.13879 5.55236 2.40543C4.14269 1.67207 2.3015 1.26138 0 1.11471V0H20.8861L41.7434 52.4794L63.3487 0H83.1415V1.11471Z" fill="#1D1C1C"/>
<path d="M122.238 67H102.762V65.8852C104.603 65.7972 106.07 65.5332 107.25 65.0932C108.429 64.6532 109.436 63.9785 110.328 63.0398C111.335 61.9838 111.997 60.6637 112.342 59.0503C112.687 57.4369 112.86 54.9728 112.86 51.5993L112.917 42.0363C112.917 40.6576 112.658 39.1322 112.112 37.4601C111.507 35.524 110.242 33.1186 108.343 30.1852L95.8861 11.0884L93.6709 7.65627C92.0311 5.16283 90.42 3.46143 88.8665 2.55206C88.061 2.05338 87.2554 1.7307 86.4499 1.52536C85.6444 1.32001 84.5224 1.20268 83.084 1.14401V0.0292969H114.471V1.14401C111.795 1.32001 110.098 1.55469 109.379 1.87737C107.595 2.6694 106.674 4.07746 106.674 6.16021C106.674 6.9229 106.876 7.7736 107.278 8.71231C107.681 9.65101 108.343 10.8537 109.235 12.2911L122.296 33.1186" fill="#1D1C1C"/>
<path d="M128.625 51.5994V15.4006C128.625 12.0271 128.453 9.53371 128.107 7.94965C127.762 6.36559 127.072 5.0162 126.036 3.96016C125.173 3.02145 124.166 2.31743 123.015 1.90674C121.865 1.49606 120.369 1.23205 118.527 1.11471V0H141.744C145.627 0 148.188 0 149.396 0.058669C154.373 0.293345 158.257 0.968039 161.105 2.11208C164.27 3.43214 166.744 5.36821 168.499 7.97898C170.253 10.5898 171.117 13.6112 171.117 17.0433C171.117 22.1475 169.218 26.2544 165.449 29.3052C164.298 30.2145 163.004 30.9772 161.623 31.5639C160.242 32.1506 158.343 32.708 156.013 33.236C157.94 34.0574 159.379 34.9081 160.299 35.7881C161.047 36.4628 161.709 37.3428 162.313 38.3695C162.917 39.3962 163.838 41.215 165.046 43.8551C167.894 49.8393 170.052 54.2102 171.519 56.9969C172.986 59.7837 174.195 61.7785 175.202 63.0105C176.007 64.0372 176.784 64.7412 177.532 65.1226C178.28 65.5039 179.316 65.7679 180.639 65.9146V67.0293H164.644C163.838 65.2399 163.32 64.0959 163.09 63.5972L159.724 55.7942C157.71 51.1007 155.668 46.9645 153.596 43.3857C151.554 39.8069 149.655 37.3722 147.958 36.0814C147.095 35.4361 146.174 34.9667 145.167 34.6734C144.16 34.38 142.952 34.2627 141.514 34.2627H139.154V51.6287C139.154 54.9729 139.327 57.437 139.701 59.0797C140.075 60.7224 140.766 62.0425 141.744 63.0692C142.607 63.9785 143.614 64.6532 144.764 65.0933C145.915 65.5333 147.411 65.7973 149.252 65.9146V67.0293H128.596M139.183 33.148H141.024C144.995 33.148 147.843 32.9133 149.569 32.4733C151.295 32.0333 152.906 31.0652 154.402 29.6278C157.768 26.3424 159.465 22.2942 159.465 17.454C159.465 14.8726 158.976 12.4378 157.998 10.1497C157.02 7.86165 155.668 6.01357 153.942 4.51751C152.589 3.4028 150.978 2.64011 149.137 2.20009C147.296 1.76007 144.621 1.52539 141.197 1.52539H139.212V33.148H139.183Z" fill="#1D1C1C"/>
<path d="M250 67H218.354V65.8853C221.202 65.6213 223.187 65.1226 224.338 64.4186C226.323 63.1278 227.33 61.3678 227.33 59.109C227.33 57.7596 226.87 55.9702 225.978 53.7115L225.172 51.6581L220.54 40.0709H199.367L196.864 46.8472L195.656 49.898C194.217 53.5061 193.498 56.3222 193.498 58.405C193.498 59.6077 193.757 60.7517 194.303 61.7785C194.821 62.8345 195.54 63.6852 196.432 64.3306C197.698 65.2106 199.28 65.7386 201.237 65.9146V67.0293H179.66V65.9146C181.358 65.8266 182.853 65.3866 184.148 64.6239C185.443 63.8612 186.68 62.6585 187.917 60.9864C188.952 59.637 189.959 57.9063 190.937 55.7942C191.916 53.6821 193.21 50.514 194.821 46.2898L212.399 0H215.132L236.076 51.5994C237.658 55.5009 238.895 58.2877 239.844 59.9304C240.765 61.6025 241.772 62.8638 242.865 63.7145C243.642 64.3012 244.505 64.7412 245.512 65.0639C246.519 65.3866 247.986 65.6506 250 65.8853V67ZM219.764 38.0468L209.666 12.6138L200.143 38.0468H219.792H219.764Z" fill="#1D1C1C"/>
</svg>
